<?xml version="1.0" encoding="iso-8859-1"?>
<!-- Uploaded to: SVG Repo, www.svgrepo.com, Generator: SVG Repo Mixer Tools -->
<svg version="1.1" id="Layer_1" xmlns="http://www.w3.org/2000/svg" xmlns:xlink="http://www.w3.org/1999/xlink" 
	 viewBox="0 0 512 512" xml:space="preserve">
<rect x="85.318" y="108.533" style="fill:#3FC8F2;" width="75.317" height="395.028"/>
<rect x="126.233" y="108.533" style="fill:#0DAACE;" width="34.397" height="395.028"/>
<rect x="160.633" y="291.525" style="fill:#FFDB56;" width="74.673" height="212.036"/>
<rect x="201.548" y="291.525" style="fill:#FBA806;" width="33.758" height="212.036"/>
<rect x="288.464" y="108.533" style="fill:#3FC8F2;" width="75.317" height="395.028"/>
<rect x="329.39" y="108.533" style="fill:#0DAACE;" width="34.397" height="395.028"/>
<rect x="363.779" y="291.525" style="fill:#FFDB56;" width="74.673" height="212.036"/>
<rect x="404.705" y="291.525" style="fill:#FBA806;" width="33.758" height="212.036"/>
<path d="M9.002,110.422c4.661,0,8.44-3.779,8.44-8.44V8.44c0-4.661-3.779-8.44-8.44-8.44s-8.44,3.779-8.44,8.44v93.543
	C0.563,106.645,4.341,110.422,9.002,110.422z"/>
<path d="M502.998,495.121H446.9v-203.6c0-4.661-3.778-8.44-8.44-8.44h-66.877V108.537c0-4.661-3.778-8.44-8.44-8.44h-74.677
	c-4.661,0-8.44,3.779-8.44,8.44v192.474c0,4.661,3.779,8.44,8.44,8.44c4.662,0,8.44-3.779,8.44-8.44V116.977h57.798v378.144h-57.798
	V334.769c0-4.661-3.778-8.44-8.44-8.44c-4.661,0-8.44,3.779-8.44,8.44v160.352h-36.278v-203.6c0-4.661-3.779-8.44-8.44-8.44h-66.877
	V108.537c0-4.661-3.779-8.44-8.44-8.44H85.316c-4.661,0-8.44,3.779-8.44,8.44v61.942c0,4.661,3.779,8.44,8.44,8.44
	c4.661,0,8.44-3.779,8.44-8.44v-53.502h57.797v378.144H93.756V204.237c0-4.661-3.779-8.44-8.44-8.44c-4.661,0-8.44,3.779-8.44,8.44
	v290.884H17.442V135.74c0-4.661-3.779-8.44-8.44-8.44s-8.44,3.779-8.44,8.44V503.56c0,4.661,3.779,8.44,8.44,8.44h76.314h74.677
	h0.639h74.678h53.157h74.677h0.639h74.677h64.539c4.662,0,8.44-3.779,8.44-8.44S507.66,495.121,502.998,495.121z M169.073,495.121
	V299.96h57.799v195.161H169.073z M372.223,495.121V299.96h57.797v195.161H372.223z"/>
</svg>